<svg xmlns="http://www.w3.org/2000/svg" width="23.899" height="23.899" viewBox="2.759 2.759 23.899 23.899"><g data-name="Plus"><path d="M20.285 2.76H9.132c-4.068 0-6.373 2.304-6.373 6.372v11.153c0 4.058 2.295 6.373 6.373 6.373h11.153c4.068 0 6.373-2.315 6.373-6.373V9.132c0-4.068-2.305-6.373-6.373-6.373Z" fill="#2172e5" fill-rule="evenodd" data-name="Path_34200"/><path d="M18.676 15.555h-3.072v3.046c0 .49-.4.888-.895.888a.892.892 0 0 1-.896-.888v-3.046h-3.072a.9.9 0 0 1-.812-.892.9.9 0 0 1 .812-.893h3.062v-3.036a.902.902 0 0 1 .9-.805c.465 0 .854.348.901.805v3.036h3.072a.9.9 0 0 1 .813.893.9.9 0 0 1-.813.892Z" fill="#fff" fill-rule="evenodd" data-name="Path_34201"/></g></svg>