<svg xmlns="http://www.w3.org/2000/svg" width="28.901" height="28.903" viewBox="141.549 866 28.901 28.903"><g data-name="Iconly/Broken/Category"><path d="M161.787 894.903c-2.404-.015-4.365-2.025-4.372-4.478v-4.367c0-2.462 1.961-4.463 4.372-4.463h4.279c2.402.006 4.37 2.008 4.384 4.463v4.367c-.015 2.453-1.982 4.463-4.384 4.478h-4.279Zm-2.026-8.845v4.367a2.068 2.068 0 0 0 .59 1.466c.38.387.885.6 1.421.6H166.081c.536 0 1.041-.213 1.42-.6.384-.393.593-.913.59-1.466v-4.367c0-.552-.212-1.071-.593-1.463a1.994 1.994 0 0 0-1.432-.605h-4.279c-1.117 0-2.026.927-2.026 2.068Zm-13.827 8.83c-2.4-.05-4.336-2.026-4.385-4.477v-4.353a4.51 4.51 0 0 1 1.286-3.162 4.323 4.323 0 0 1 3.1-1.301h1.757a1.17 1.17 0 0 1 1.125.558c.24.39.24.887 0 1.277a1.17 1.17 0 0 1-1.125.56h-1.758c-1.12 0-2.03.923-2.038 2.068v4.312c.028 1.135.926 2.045 2.038 2.067h4.306a1.997 1.997 0 0 0 1.44-.6c.383-.388.598-.917.598-1.467v-6.475a1.214 1.214 0 0 1 .529-1.237 1.16 1.16 0 0 1 1.32.039c.392.287.573.788.458 1.266v6.448c0 2.472-1.963 4.477-4.385 4.477h-4.266Zm18.415-15.539a1.198 1.198 0 0 1-1.056-1.199c0-.615.456-1.132 1.056-1.198h1.717a2.013 2.013 0 0 0 1.441-.623c.38-.397.59-.93.583-1.485v-4.367c-.015-1.135-.913-2.052-2.024-2.067h-4.279c-1.118 0-2.026.925-2.026 2.067v6.53a1.204 1.204 0 0 1-1.206 1.177 1.157 1.157 0 0 1-.823-.372 1.207 1.207 0 0 1-.317-.86v-6.475a4.513 4.513 0 0 1 1.276-3.165 4.33 4.33 0 0 1 3.096-1.312h4.279c2.395.058 4.321 2.032 4.37 4.477v4.353a4.512 4.512 0 0 1-1.24 3.172 4.335 4.335 0 0 1-3.077 1.347h-1.77Zm-14.127-.04H145.934c-2.403-.009-4.37-2.012-4.385-4.465v-4.367c.015-2.454 1.982-4.462 4.385-4.477h4.278c2.411.007 4.378 2.015 4.387 4.477v4.367a4.482 4.482 0 0 1-1.286 3.161 4.303 4.303 0 0 1-3.09 1.303ZM144.476 869a2.101 2.101 0 0 0-.606 1.476v4.367a2.096 2.096 0 0 0 .592 1.503c.376.385.896.605 1.428.605H150.212a2.005 2.005 0 0 0 1.443-.623c.384-.4.59-.927.583-1.485v-4.367c-.008-1.132-.917-2.06-2.026-2.067h-4.318c-.532 0-1.036.209-1.418.591Z" fill="currentColor" fill-rule="evenodd" data-name="Category"/></g></svg>